# xmcd
#
# Track frame offsets: 
#        150
#        14402
#        28929
#        45087
#        59280
#        76304
#        98773
#        118000
#        134217
#        153394
#        169050
#        184317
#
# Disc length: 2713 seconds
#
# Revision: 0
# Processed by: cddbd v1.5.2PL0 Copyright (c) Steve Scherf et al.
# Submitted via: ExactAudioCopy v0.99pb3
#
DISCID=9c0a970c
DTITLE=Doug Adkins - Waltz Across Montana
DYEAR=2010
DGENRE=Country
TTITLE0=Ain't Gonna Play
TTITLE1=Loved You More
TTITLE2=Mary Jane Riley
TTITLE3=Why Not
TTITLE4=Playin' To Win
TTITLE5=Bismarck
TTITLE6=One Fine Mamma
TTITLE7=Ropin The Wind
TTITLE8=Yippee II Yippee AA
TTITLE9=Waltz Across Montana
TTITLE10=Nothin' Left
TTITLE11=To Santa Fe
EXTD=
EXTT0=
EXTT1=
EXTT2=
EXTT3=
EXTT4=
EXTT5=
EXTT6=
EXTT7=
EXTT8=
EXTT9=
EXTT10=
EXTT11=
PLAYORDER=
